 <svg  version="1.0" xmlns="http://www.w3.org/2000/svg"  width="900.000000pt" height="900.000000pt" viewBox="0 0 900.000000 900.000000"  preserveAspectRatio="xMidYMid meet">  <g transform="translate(0.000000,900.000000) scale(0.100000,-0.100000)" stroke="none"> <path d="M1480 8404 c-25 -8 -67 -22 -95 -31 -180 -58 -366 -224 -459 -410 -37 -72 -55 -129 -76 -228 -19 -87 -19 -187 -20 -3246 0 -3089 0 -3158 19 -3245 22 -100 41 -157 77 -227 93 -186 279 -352 459 -410 156 -50 -1 -47 2139 -47 1787 0 1999 1 2066 16 162 34 225 56 377 131 271 133 507 374 637 648 10 22 22 48 27 57 4 9 17 45 29 80 84 263 80 201 80 1395 0 652 -4 1054 -9 1058 -6 3 -40 1 -78 -5 -87 -14 -300 -14 -388 0 -63 10 -71 9 -82 -7 -11 -14 -13 -133 -13 -566 0 -303 -1 -551 -3 -553 -3 -3 -3701 -6 -4754 -4 -10 0 -13 490 -13 2419 0 2282 1 2421 18 2458 28 63 59 99 114 134 l53 34 1960 0 1960 0 65 -24 c110 -40 124 -46 159 -65 36 -19 70 -17 146 9 45 15 132 37 215 56 30 6 120 17 200 23 119 9 145 14 148 27 7 36 -269 287 -384 349 -22 12 -46 25 -54 30 -48 30 -197 90 -280 113 -174 50 -54 47 -2196 46 -1719 0 -2005 -3 -2044 -15z"/> <path d="M6195 7564 c-161 -32 -269 -62 -360 -99 -42 -18 -206 -98 -240 -118 -131 -77 -293 -211 -390 -323 -33 -38 -62 -71 -65 -74 -8 -7 -102 -140 -115 -162 -88 -149 -148 -286 -189 -428 -97 -341 -84 -700 39 -1050 22 -63 123 -266 159 -320 114 -171 259 -327 423 -453 34 -26 64 -47 67 -47 3 0 24 -13 48 -29 112 -75 289 -151 453 -194 184 -49 205 -51 430 -51 224 0 267 5 440 51 121 32 159 46 310 118 294 141 555 386 722 680 32 56 103 204 103 215 0 5 6 24 14 42 14 34 33 97 60 203 24 93 46 274 46 372 -1 159 -42 390 -101 566 -33 96 -122 273 -186 369 -120 179 -301 358 -474 471 -92 60 -245 142 -294 156 -16 5 -55 19 -85 31 -70 27 -149 49 -220 60 -30 5 -79 13 -109 19 -76 15 -400 12 -486 -5z m357 -841 c63 -24 120 -74 153 -134 29 -53 30 -57 35 -234 l5 -180 185 -5 c196 -5 201 -6 273 -63 57 -45 97 -128 97 -206 0 -51 -18 -119 -37 -142 -7 -8 -13 -19 -13 -23 0 -10 -49 -55 -94 -85 -38 -25 -45 -26 -220 -30 -122 -2 -183 -7 -188 -15 -4 -6 -8 -83 -8 -171 0 -148 -2 -164 -24 -210 -30 -63 -86 -119 -143 -145 -60 -26 -181 -28 -226 -3 -141 78 -179 166 -176 406 1 65 -2 122 -7 127 -5 5 -88 10 -184 12 -165 3 -177 4 -215 28 -52 31 -93 73 -119 119 -29 51 -30 211 -2 256 34 53 80 96 128 121 45 23 57 24 218 24 127 0 172 3 175 13 3 6 7 82 9 167 4 181 16 227 79 295 80 87 198 118 299 78z"/> <path d="M2407 5311 c-56 -27 -116 -89 -143 -150 -69 -154 19 -333 186 -378 32 -9 176 -12 493 -13 532 0 529 -1 617 89 57 58 90 131 90 198 0 93 -82 211 -175 252 -46 20 -60 21 -539 20 -449 -1 -494 -2 -529 -18z"/> <path d="M2445 4196 c-89 -25 -154 -86 -188 -174 -51 -129 16 -284 150 -351 l42 -21 1334 0 c1311 0 1335 0 1379 20 188 83 227 332 73 468 -87 77 4 72 -1452 71 -949 -1 -1309 -4 -1338 -13z"/> </g> </svg> 