<?xml version="1.0" encoding="UTF-8"?>
<!DOCTYPE svg PUBLIC "-//W3C//DTD SVG 1.1//EN" "http://www.w3.org/Graphics/SVG/1.1/DTD/svg11.dtd">
<svg xmlns="http://www.w3.org/2000/svg" version="1.1" width="484px" height="512px" style="shape-rendering:geometricPrecision; text-rendering:geometricPrecision; image-rendering:optimizeQuality; fill-rule:evenodd; clip-rule:evenodd" xmlns:xlink="http://www.w3.org/1999/xlink">
<g><path d="M 47.5,-0.5 C 140.5,-0.5 233.5,-0.5 326.5,-0.5C 350.71,5.87607 366.21,21.2094 373,45.5C 374.351,60.1301 374.851,74.7968 374.5,89.5C 393.836,89.3334 413.17,89.5 432.5,90C 462.506,96.168 479.506,114.335 483.5,144.5C 483.5,248.5 483.5,352.5 483.5,456.5C 479.625,485.377 463.625,503.71 435.5,511.5C 342.5,511.5 249.5,511.5 156.5,511.5C 128.845,504.005 113.011,486.005 109,457.5C 108.5,433.502 108.333,409.502 108.5,385.5C 89.4971,385.667 70.4971,385.5 51.5,385C 20.9539,379.29 3.62052,361.123 -0.5,330.5C -0.5,238.5 -0.5,146.5 -0.5,54.5C 3.37464,25.6231 19.3746,7.28974 47.5,-0.5 Z M 53.5,44.5 C 142.501,44.3333 231.501,44.5 320.5,45C 324.817,47.3151 327.65,50.8151 329,55.5C 329.5,66.8284 329.667,78.1618 329.5,89.5C 272.832,89.3333 216.166,89.5 159.5,90C 129.968,95.8645 113.135,113.698 109,143.5C 108.5,209.166 108.333,274.832 108.5,340.5C 90.8302,340.667 73.1635,340.5 55.5,340C 49.5901,338.421 46.0901,334.588 45,328.5C 44.3333,237.5 44.3333,146.5 45,55.5C 46.5528,50.7879 49.3862,47.1213 53.5,44.5 Z M 163.5,134.5 C 251.834,134.333 340.167,134.5 428.5,135C 433.876,137.04 437.043,140.873 438,146.5C 438.667,249.5 438.667,352.5 438,455.5C 437.036,459.468 434.869,462.635 431.5,465C 341.914,466.661 252.248,466.995 162.5,466C 158.183,463.685 155.35,460.185 154,455.5C 153.333,352.167 153.333,248.833 154,145.5C 155.599,140.406 158.766,136.739 163.5,134.5 Z"/></g>
</svg>
