
<svg version="1.0" xmlns="http://www.w3.org/2000/svg"
 width="900.000000pt" height="900.000000pt" viewBox="0 0 900.000000 900.000000"
 preserveAspectRatio="xMidYMid meet">
<g transform="translate(0.000000,900.000000) scale(0.100000,-0.100000)" stroke="none">
<path d="M597 8986 c-3 -8 -21 -17 -39 -21 -47 -9 -117 -36 -163 -62 -22 -12
-49 -27 -60 -32 -50 -23 -203 -176 -226 -226 -5 -11 -19 -36 -30 -55 -25 -40
-44 -92 -65 -168 -12 -45 -14 -565 -14 -3557 0 -3188 1 -3509 16 -3567 54
-211 209 -395 414 -490 30 -15 186 -69 345 -122 160 -52 304 -100 320 -106 17
-6 158 -53 315 -105 157 -52 299 -99 315 -105 80 -28 844 -283 870 -290 17 -5
57 -19 90 -30 111 -40 167 -49 302 -50 155 0 222 14 337 71 167 83 303 230
362 393 44 121 46 139 53 391 l6 250 615 6 c371 4 641 11 680 17 55 10 103 22
225 59 11 3 29 12 40 20 11 7 25 13 32 13 17 0 158 85 213 129 153 121 302
316 356 465 86 241 84 207 84 1150 0 792 -1 836 -19 888 -37 106 -105 185
-201 231 -66 31 -244 31 -311 -1 -73 -34 -141 -102 -180 -179 l-34 -68 -5
-840 c-6 -949 -1 -882 -88 -991 -32 -39 -68 -69 -112 -93 l-65 -36 -615 0
-615 0 -5 2875 c-6 3116 -2 2873 -54 3016 -73 202 -263 376 -488 448 -73 23
29 26 858 26 l875 0 73 -30 c75 -31 156 -102 189 -165 47 -88 47 -90 47 -748
0 -603 1 -624 21 -676 40 -105 113 -185 209 -227 35 -15 67 -19 150 -19 94 1
110 3 156 27 97 51 154 116 193 219 20 52 21 73 21 705 0 618 -1 656 -21 749
-11 54 -24 106 -30 116 -5 10 -9 25 -9 34 0 27 -87 200 -137 273 -62 91 -203
233 -290 292 -127 86 -291 156 -411 175 -24 4 -46 13 -49 21 -8 21 -4438 21
-4446 0z"/>
<path d="M7013 7101 c-102 -26 -212 -131 -252 -240 -20 -57 -21 -73 -21 -644
0 -366 -4 -588 -10 -592 -5 -3 -335 -6 -733 -5 -471 0 -750 -3 -801 -11 -128
-17 -227 -86 -291 -201 -28 -50 -29 -59 -29 -168 0 -104 3 -120 26 -164 59
-112 168 -187 296 -206 46 -6 343 -10 798 -10 399 1 729 -2 734 -5 6 -4 10
-225 10 -589 0 -551 1 -586 19 -639 36 -104 96 -173 195 -225 46 -24 61 -27
161 -27 101 0 114 3 165 29 44 22 207 179 838 809 430 430 796 802 812 827 16
25 32 57 35 73 4 15 13 27 21 27 11 0 14 21 14 100 0 79 -3 100 -14 100 -8 0
-17 12 -21 28 -3 15 -19 47 -35 72 -16 25 -382 397 -812 827 -882 880 -828
834 -983 839 -49 2 -104 0 -122 -5z"/>
</g>
</svg>
