<svg version="1.0" xmlns="http://www.w3.org/2000/svg"
 width="900.000000pt" height="900.000000pt" viewBox="0 0 900.000000 900.000000"
 preserveAspectRatio="xMidYMid meet">
<g transform="translate(0.000000,900.000000) scale(0.100000,-0.100000)" stroke="none">
<path d="M3943 8989 c1 -6 -11 -16 -28 -21 -134 -42 -247 -127 -320 -243 -58
-92 -79 -177 -110 -440 -9 -77 -23 -189 -31 -250 -8 -60 -17 -136 -20 -167 -6
-62 -30 -93 -83 -104 -47 -10 -236 -87 -359 -146 l-82 -39 -135 103 c-74 57
-209 161 -300 231 -255 196 -289 212 -475 212 -128 0 -141 -3 -250 -53 -65
-30 -115 -75 -428 -386 -369 -366 -388 -389 -449 -536 -28 -68 -26 -274 4
-350 40 -103 33 -94 406 -574 51 -65 98 -127 105 -137 12 -16 9 -29 -26 -101
-62 -128 -119 -268 -148 -359 -19 -62 -39 -77 -109 -84 -70 -7 -246 -30 -391
-50 -56 -8 -118 -15 -138 -15 -58 0 -215 -39 -270 -66 -144 -72 -245 -192
-292 -344 -21 -69 -20 -1094 1 -1164 43 -143 153 -271 291 -340 55 -27 212
-66 270 -66 20 0 82 -7 138 -15 145 -20 321 -43 391 -50 70 -7 90 -22 109 -84
29 -91 86 -231 148 -359 35 -72 38 -85 26 -101 -7 -10 -54 -72 -105 -137 -373
-480 -366 -471 -406 -574 -30 -76 -32 -282 -4 -350 61 -148 81 -171 449 -536
315 -312 364 -356 428 -386 108 -50 122 -53 244 -53 121 0 195 16 269 58 29
16 289 210 352 262 43 36 221 173 276 214 17 12 29 9 102 -27 45 -22 111 -52
147 -67 36 -14 74 -30 85 -34 54 -23 103 -40 126 -45 53 -11 77 -42 83 -104 8
-74 33 -269 51 -402 9 -58 15 -121 15 -140 1 -39 31 -175 51 -230 53 -139 206
-280 355 -325 73 -22 1095 -22 1168 0 143 43 271 153 340 291 27 53 66 212 66
266 0 18 6 80 15 138 22 158 43 328 50 395 7 70 22 90 84 109 91 29 231 86
359 148 72 35 85 38 101 26 10 -7 81 -61 157 -121 449 -348 441 -343 564 -393
64 -27 276 -27 340 -1 87 36 115 52 170 93 63 48 661 649 706 709 30 40 47 72
81 155 26 64 26 276 -1 340 -50 122 -45 115 -409 584 -51 65 -98 127 -105 137
-12 16 -9 29 26 101 62 128 119 268 148 359 21 70 35 78 160 89 60 6 116 13
124 16 8 3 56 9 105 14 230 22 406 52 485 81 56 21 136 77 191 133 55 56 129
178 129 213 0 13 9 32 20 43 19 19 20 33 20 550 0 517 -1 531 -20 550 -11 11
-20 30 -20 42 0 26 -59 136 -102 189 -39 49 -117 110 -184 143 -77 38 -247 70
-519 96 -49 5 -97 11 -105 14 -8 3 -64 10 -124 16 -125 11 -139 19 -160 89
-29 91 -86 231 -148 359 -35 72 -38 85 -26 101 7 10 54 72 105 137 364 469
359 462 409 584 29 68 27 274 -3 352 -47 121 -60 137 -417 496 -306 308 -386
382 -456 414 -108 50 -122 53 -250 53 -208 0 -197 6 -733 -413 -195 -152 -170
-139 -225 -109 -80 43 -298 133 -393 163 -62 19 -77 39 -84 109 -7 67 -28 237
-50 395 -9 58 -15 120 -15 138 0 40 -26 161 -48 222 -52 146 -191 279 -347
331 -27 9 -49 22 -48 28 2 8 -150 11 -547 11 -402 0 -549 -3 -547 -11z m887
-2654 c224 -50 297 -75 485 -166 262 -127 485 -309 660 -540 92 -120 140 -198
203 -330 84 -177 115 -269 159 -479 25 -123 25 -537 0 -660 -25 -119 -46 -199
-63 -238 -8 -18 -14 -39 -14 -47 0 -28 -114 -269 -172 -363 -102 -167 -286
-376 -423 -480 -33 -25 -62 -49 -65 -52 -27 -32 -349 -212 -415 -232 -11 -4
-51 -17 -90 -31 -219 -76 -323 -92 -605 -91 -277 0 -367 13 -592 85 -105 34
-288 120 -388 183 -174 108 -374 285 -478 421 -25 33 -49 62 -52 65 -32 27
-212 349 -232 415 -4 11 -17 52 -31 90 -26 77 -46 148 -73 270 -27 117 -27
553 0 670 32 145 68 269 97 342 51 126 205 405 239 433 3 3 27 32 52 65 58 77
206 225 283 283 33 25 62 49 65 52 27 32 349 212 415 232 11 4 52 17 90 31
125 43 303 84 400 91 124 9 472 -3 545 -19z"/>
</g>
</svg>
